<svg xmlns="http://www.w3.org/2000/svg" xmlns:xlink="http://www.w3.org/1999/xlink" width="500" zoomAndPan="magnify" viewBox="0 0 375 374.999991" height="500" preserveAspectRatio="xMidYMid meet" version="1.0"><defs><clipPath id="6cfed6b76c"><path d="M 2 45.207031 L 349.5 45.207031 L 349.5 313.707031 L 2 313.707031 Z M 2 45.207031 " clip-rule="nonzero"/></clipPath><clipPath id="1cf4a4d810"><path d="M 88.5625 81.914062 L 238.5625 81.914062 L 238.5625 231.914062 L 88.5625 231.914062 Z M 88.5625 81.914062 " clip-rule="nonzero"/></clipPath><clipPath id="4f696edd7d"><path d="M 177 129 L 198 129 L 198 150 L 177 150 Z M 177 129 " clip-rule="nonzero"/></clipPath><clipPath id="19b72ca3b7"><path d="M 197.210938 139.710938 C 197.210938 140.367188 197.148438 141.015625 197.019531 141.660156 C 196.890625 142.304688 196.699219 142.929688 196.449219 143.535156 C 196.199219 144.140625 195.890625 144.71875 195.527344 145.265625 C 195.160156 145.8125 194.746094 146.316406 194.28125 146.78125 C 193.816406 147.246094 193.3125 147.660156 192.765625 148.023438 C 192.21875 148.386719 191.644531 148.695312 191.039062 148.949219 C 190.429688 149.199219 189.804688 149.390625 189.160156 149.515625 C 188.519531 149.644531 187.867188 149.710938 187.210938 149.710938 C 186.554688 149.710938 185.902344 149.644531 185.261719 149.515625 C 184.617188 149.390625 183.992188 149.199219 183.382812 148.949219 C 182.777344 148.695312 182.199219 148.386719 181.65625 148.023438 C 181.109375 147.660156 180.605469 147.246094 180.140625 146.78125 C 179.675781 146.316406 179.261719 145.8125 178.894531 145.265625 C 178.53125 144.71875 178.222656 144.140625 177.972656 143.535156 C 177.722656 142.929688 177.53125 142.304688 177.402344 141.660156 C 177.273438 141.015625 177.210938 140.367188 177.210938 139.710938 C 177.210938 139.050781 177.273438 138.402344 177.402344 137.757812 C 177.53125 137.113281 177.722656 136.488281 177.972656 135.882812 C 178.222656 135.277344 178.53125 134.699219 178.894531 134.152344 C 179.261719 133.605469 179.675781 133.101562 180.140625 132.636719 C 180.605469 132.171875 181.109375 131.757812 181.65625 131.394531 C 182.199219 131.03125 182.777344 130.722656 183.382812 130.46875 C 183.992188 130.21875 184.617188 130.027344 185.261719 129.902344 C 185.902344 129.773438 186.554688 129.710938 187.210938 129.710938 C 187.867188 129.710938 188.519531 129.773438 189.160156 129.902344 C 189.804688 130.027344 190.429688 130.21875 191.039062 130.46875 C 191.644531 130.722656 192.21875 131.03125 192.765625 131.394531 C 193.3125 131.757812 193.816406 132.171875 194.28125 132.636719 C 194.746094 133.101562 195.160156 133.605469 195.527344 134.152344 C 195.890625 134.699219 196.199219 135.277344 196.449219 135.882812 C 196.699219 136.488281 196.890625 137.113281 197.019531 137.757812 C 197.148438 138.402344 197.210938 139.050781 197.210938 139.710938 Z M 197.210938 139.710938 " clip-rule="nonzero"/></clipPath><radialGradient gradientTransform="matrix(1, 0, 0, -1, 88.269709, 232.209011)" gradientUnits="userSpaceOnUse" r="9.999999" cx="98.929401" id="43d9f7bb59" cy="92.499992" fx="98.929401" fy="92.499992"><stop stop-opacity="1" stop-color="rgb(8.753967%, 7.984924%, 7.984924%)" offset="0"/><stop stop-opacity="1" stop-color="rgb(9.054565%, 8.345032%, 8.345032%)" offset="0.0625"/><stop stop-opacity="1" stop-color="rgb(9.335327%, 8.682251%, 8.682251%)" offset="0.121094"/><stop stop-opacity="1" stop-color="rgb(9.596252%, 8.996582%, 8.996582%)" offset="0.175781"/><stop stop-opacity="1" stop-color="rgb(9.838867%, 9.288025%, 9.288025%)" offset="0.226562"/><stop stop-opacity="1" stop-color="rgb(10.063171%, 9.555054%, 9.555054%)" offset="0.273438"/><stop stop-opacity="1" stop-color="rgb(10.266113%, 9.799194%, 9.799194%)" offset="0.316406"/><stop stop-opacity="1" stop-color="rgb(10.4599%, 10.032654%, 10.032654%)" offset="0.355469"/><stop stop-opacity="1" stop-color="rgb(10.736084%, 10.331726%, 10.331726%)" offset="0.394531"/><stop stop-opacity="1" stop-color="rgb(11.00769%, 10.60791%, 10.60791%)" offset="0.429688"/><stop stop-opacity="1" stop-color="rgb(11.2854%, 10.88562%, 10.88562%)" offset="0.445312"/><stop stop-opacity="1" stop-color="rgb(11.656189%, 11.256409%, 11.256409%)" offset="0.476562"/><stop stop-opacity="1" stop-color="rgb(12.004089%, 11.604309%, 11.604309%)" offset="0.507812"/><stop stop-opacity="1" stop-color="rgb(12.329102%, 11.929321%, 11.929321%)" offset="0.535156"/><stop stop-opacity="1" stop-color="rgb(12.654114%, 12.252808%, 12.252808%)" offset="0.5625"/><stop stop-opacity="1" stop-color="rgb(12.954712%, 12.554932%, 12.554932%)" offset="0.589844"/><stop stop-opacity="1" stop-color="rgb(13.232422%, 12.832642%, 12.832642%)" offset="0.613281"/><stop stop-opacity="1" stop-color="rgb(13.487244%, 13.087463%, 13.087463%)" offset="0.636719"/><stop stop-opacity="1" stop-color="rgb(13.719177%, 13.319397%, 13.319397%)" offset="0.65625"/><stop stop-opacity="1" stop-color="rgb(13.951111%, 13.551331%, 13.551331%)" offset="0.675781"/><stop stop-opacity="1" stop-color="rgb(14.160156%, 13.760376%, 13.760376%)" offset="0.695312"/><stop stop-opacity="1" stop-color="rgb(14.344788%, 13.945007%, 13.945007%)" offset="0.710938"/><stop stop-opacity="1" stop-color="rgb(14.622498%, 14.222717%, 14.222717%)" offset="0.726562"/><stop stop-opacity="1" stop-color="rgb(14.970398%, 14.570618%, 14.570618%)" offset="0.757812"/><stop stop-opacity="1" stop-color="rgb(15.272522%, 14.872742%, 14.872742%)" offset="0.785156"/><stop stop-opacity="1" stop-color="rgb(15.550232%, 15.150452%, 15.150452%)" offset="0.808594"/><stop stop-opacity="1" stop-color="rgb(15.805054%, 15.405273%, 15.405273%)" offset="0.832031"/><stop stop-opacity="1" stop-color="rgb(16.014099%, 15.612793%, 15.612793%)" offset="0.851562"/><stop stop-opacity="1" stop-color="rgb(16.291809%, 15.890503%, 15.890503%)" offset="0.867188"/><stop stop-opacity="1" stop-color="rgb(16.616821%, 16.215515%, 16.215515%)" offset="0.898438"/><stop stop-opacity="1" stop-color="rgb(16.867065%, 16.488647%, 16.488647%)" offset="0.921875"/><stop stop-opacity="1" stop-color="rgb(17.03949%, 16.720581%, 16.720581%)" offset="0.941406"/><stop stop-opacity="1" stop-color="rgb(17.225647%, 17.01355%, 17.01355%)" offset="0.953125"/><stop stop-opacity="1" stop-color="rgb(17.474365%, 17.404175%, 17.404175%)" offset="0.976562"/><stop stop-opacity="1" stop-color="rgb(17.599487%, 17.599487%, 17.599487%)" offset="1"/></radialGradient><clipPath id="1670f5eaee"><path d="M 129 129 L 150 129 L 150 150 L 129 150 Z M 129 129 " clip-rule="nonzero"/></clipPath><clipPath id="802eef70ab"><path d="M 149.917969 139.710938 C 149.917969 140.367188 149.851562 141.015625 149.722656 141.660156 C 149.597656 142.304688 149.40625 142.929688 149.15625 143.535156 C 148.902344 144.140625 148.597656 144.71875 148.230469 145.265625 C 147.867188 145.8125 147.453125 146.316406 146.988281 146.78125 C 146.523438 147.246094 146.019531 147.660156 145.472656 148.023438 C 144.925781 148.386719 144.351562 148.695312 143.742188 148.949219 C 143.136719 149.199219 142.511719 149.390625 141.867188 149.515625 C 141.222656 149.644531 140.574219 149.710938 139.917969 149.710938 C 139.261719 149.710938 138.609375 149.644531 137.964844 149.515625 C 137.320312 149.390625 136.695312 149.199219 136.089844 148.949219 C 135.484375 148.695312 134.90625 148.386719 134.359375 148.023438 C 133.816406 147.660156 133.308594 147.246094 132.84375 146.78125 C 132.382812 146.316406 131.96875 145.8125 131.601562 145.265625 C 131.238281 144.71875 130.929688 144.140625 130.679688 143.535156 C 130.425781 142.929688 130.238281 142.304688 130.109375 141.660156 C 129.980469 141.015625 129.917969 140.367188 129.917969 139.710938 C 129.917969 139.050781 129.980469 138.402344 130.109375 137.757812 C 130.238281 137.113281 130.425781 136.488281 130.679688 135.882812 C 130.929688 135.277344 131.238281 134.699219 131.601562 134.152344 C 131.96875 133.605469 132.382812 133.101562 132.84375 132.636719 C 133.308594 132.171875 133.816406 131.757812 134.359375 131.394531 C 134.90625 131.03125 135.484375 130.722656 136.089844 130.46875 C 136.695312 130.21875 137.320312 130.027344 137.964844 129.902344 C 138.609375 129.773438 139.261719 129.710938 139.917969 129.710938 C 140.574219 129.710938 141.222656 129.773438 141.867188 129.902344 C 142.511719 130.027344 143.136719 130.21875 143.742188 130.46875 C 144.351562 130.722656 144.925781 131.03125 145.472656 131.394531 C 146.019531 131.757812 146.523438 132.171875 146.988281 132.636719 C 147.453125 133.101562 147.867188 133.605469 148.230469 134.152344 C 148.597656 134.699219 148.902344 135.277344 149.15625 135.882812 C 149.40625 136.488281 149.597656 137.113281 149.722656 137.757812 C 149.851562 138.402344 149.917969 139.050781 149.917969 139.710938 Z M 149.917969 139.710938 " clip-rule="nonzero"/></clipPath><radialGradient gradientTransform="matrix(1, 0, 0, -1, 88.269709, 232.209011)" gradientUnits="userSpaceOnUse" r="9.999999" cx="51.658819" id="bf1b7afa6c" cy="92.499992" fx="51.658819" fy="92.499992"><stop stop-opacity="1" stop-color="rgb(8.753967%, 7.984924%, 7.984924%)" offset="0"/><stop stop-opacity="1" stop-color="rgb(9.054565%, 8.345032%, 8.345032%)" offset="0.0625"/><stop stop-opacity="1" stop-color="rgb(9.335327%, 8.682251%, 8.682251%)" offset="0.121094"/><stop stop-opacity="1" stop-color="rgb(9.596252%, 8.996582%, 8.996582%)" offset="0.175781"/><stop stop-opacity="1" stop-color="rgb(9.838867%, 9.288025%, 9.288025%)" offset="0.226562"/><stop stop-opacity="1" stop-color="rgb(10.063171%, 9.555054%, 9.555054%)" offset="0.273438"/><stop stop-opacity="1" stop-color="rgb(10.266113%, 9.799194%, 9.799194%)" offset="0.316406"/><stop stop-opacity="1" stop-color="rgb(10.4599%, 10.032654%, 10.032654%)" offset="0.355469"/><stop stop-opacity="1" stop-color="rgb(10.736084%, 10.331726%, 10.331726%)" offset="0.394531"/><stop stop-opacity="1" stop-color="rgb(11.00769%, 10.60791%, 10.60791%)" offset="0.429688"/><stop stop-opacity="1" stop-color="rgb(11.2854%, 10.88562%, 10.88562%)" offset="0.445312"/><stop stop-opacity="1" stop-color="rgb(11.656189%, 11.256409%, 11.256409%)" offset="0.476562"/><stop stop-opacity="1" stop-color="rgb(12.004089%, 11.604309%, 11.604309%)" offset="0.507812"/><stop stop-opacity="1" stop-color="rgb(12.329102%, 11.929321%, 11.929321%)" offset="0.535156"/><stop stop-opacity="1" stop-color="rgb(12.654114%, 12.252808%, 12.252808%)" offset="0.5625"/><stop stop-opacity="1" stop-color="rgb(12.954712%, 12.554932%, 12.554932%)" offset="0.589844"/><stop stop-opacity="1" stop-color="rgb(13.232422%, 12.832642%, 12.832642%)" offset="0.613281"/><stop stop-opacity="1" stop-color="rgb(13.487244%, 13.087463%, 13.087463%)" offset="0.636719"/><stop stop-opacity="1" stop-color="rgb(13.719177%, 13.319397%, 13.319397%)" offset="0.65625"/><stop stop-opacity="1" stop-color="rgb(13.951111%, 13.551331%, 13.551331%)" offset="0.675781"/><stop stop-opacity="1" stop-color="rgb(14.160156%, 13.760376%, 13.760376%)" offset="0.695312"/><stop stop-opacity="1" stop-color="rgb(14.344788%, 13.945007%, 13.945007%)" offset="0.710938"/><stop stop-opacity="1" stop-color="rgb(14.622498%, 14.222717%, 14.222717%)" offset="0.726562"/><stop stop-opacity="1" stop-color="rgb(14.970398%, 14.570618%, 14.570618%)" offset="0.757812"/><stop stop-opacity="1" stop-color="rgb(15.272522%, 14.872742%, 14.872742%)" offset="0.785156"/><stop stop-opacity="1" stop-color="rgb(15.550232%, 15.150452%, 15.150452%)" offset="0.808594"/><stop stop-opacity="1" stop-color="rgb(15.805054%, 15.405273%, 15.405273%)" offset="0.832031"/><stop stop-opacity="1" stop-color="rgb(16.014099%, 15.612793%, 15.612793%)" offset="0.851562"/><stop stop-opacity="1" stop-color="rgb(16.291809%, 15.890503%, 15.890503%)" offset="0.867188"/><stop stop-opacity="1" stop-color="rgb(16.616821%, 16.215515%, 16.215515%)" offset="0.898438"/><stop stop-opacity="1" stop-color="rgb(16.867065%, 16.488647%, 16.488647%)" offset="0.921875"/><stop stop-opacity="1" stop-color="rgb(17.03949%, 16.720581%, 16.720581%)" offset="0.941406"/><stop stop-opacity="1" stop-color="rgb(17.225647%, 17.01355%, 17.01355%)" offset="0.953125"/><stop stop-opacity="1" stop-color="rgb(17.474365%, 17.404175%, 17.404175%)" offset="0.976562"/><stop stop-opacity="1" stop-color="rgb(17.599487%, 17.599487%, 17.599487%)" offset="1"/></radialGradient></defs><rect x="-37.5" width="450" fill="#ffffff" y="-37.499999" height="449.999989" fill-opacity="1"/><rect x="-37.5" width="450" fill="#ffffff" y="-37.499999" height="449.999989" fill-opacity="1"/><path fill="#7ed957" d="M 340.695312 99.898438 C 338.347656 93.8125 335.125 88.246094 330.757812 83.582031 C 319.472656 71.527344 300.488281 63.496094 284.875 59.082031 C 260.707031 52.25 235.070312 49.15625 210.015625 48.339844 C 178.792969 47.320312 147.402344 49.347656 116.621094 54.710938 C 85.976562 60.050781 53.53125 68.15625 30.058594 89.902344 C 0.246094 117.519531 1.660156 162.769531 14.316406 198.878906 C 21.878906 220.453125 34.867188 239.460938 54.085938 252.164062 C 63.132812 258.140625 73.148438 262.269531 83.5625 265.15625 C 89.320312 278.675781 90.332031 293.035156 76.601562 300.617188 C 71.960938 303.183594 73.839844 311.28125 79.382812 310.882812 C 106.832031 308.917969 130.527344 293.113281 147.054688 271.542969 C 148.160156 270.101562 161.078125 270.746094 163.324219 270.550781 C 169.296875 270.035156 175.253906 269.355469 181.1875 268.558594 C 206.332031 265.164062 231.382812 263.339844 256.273438 257.957031 C 281.28125 252.539062 308.003906 244.707031 323.09375 222.394531 C 336.363281 202.753906 344.023438 177.542969 345.742188 154.125 C 346.953125 137.546875 347.191406 116.746094 340.695312 99.898438 " fill-opacity="1" fill-rule="nonzero"/><g clip-path="url(#6cfed6b76c)"><path fill="#231f20" d="M 340.695312 99.898438 L 343.414062 98.847656 C 340.964844 92.488281 337.5625 86.578125 332.886719 81.585938 C 326.902344 75.203125 319.0625 70.035156 310.75 65.859375 C 302.429688 61.6875 293.621094 58.523438 285.667969 56.273438 C 261.199219 49.359375 235.339844 46.246094 210.109375 45.421875 C 204.898438 45.25 199.679688 45.167969 194.460938 45.167969 C 168.230469 45.167969 141.96875 47.328125 116.121094 51.839844 C 100.726562 54.519531 84.789062 57.90625 69.652344 63.410156 C 54.523438 68.917969 40.171875 76.554688 28.070312 87.761719 C 18.953125 96.207031 12.628906 106.269531 8.613281 117.140625 C 4.597656 128.011719 2.878906 139.6875 2.878906 151.46875 C 2.878906 167.972656 6.25 184.695312 11.5625 199.84375 C 15.425781 210.867188 20.6875 221.273438 27.472656 230.566406 C 34.253906 239.859375 42.5625 248.042969 52.476562 254.59375 C 61.839844 260.78125 72.148438 265.015625 82.78125 267.96875 L 83.5625 265.15625 L 80.878906 266.300781 C 83.203125 271.742188 84.65625 277.242188 84.648438 282.089844 C 84.644531 285.4375 83.980469 288.445312 82.515625 291.089844 C 81.042969 293.730469 78.761719 296.085938 75.191406 298.066406 C 73.785156 298.835938 72.707031 299.996094 72.035156 301.277344 C 71.359375 302.554688 71.0625 303.945312 71.0625 305.296875 C 71.066406 307.335938 71.714844 309.347656 73.042969 310.988281 C 73.707031 311.800781 74.5625 312.519531 75.578125 313.023438 C 76.589844 313.53125 77.769531 313.8125 78.992188 313.808594 C 79.191406 313.808594 79.378906 313.804688 79.558594 313.796875 L 79.589844 313.792969 C 93.816406 312.773438 107.054688 308.164062 118.820312 301.0625 C 130.59375 293.957031 140.90625 284.363281 149.371094 273.316406 L 147.601562 271.960938 L 148.839844 273.820312 C 148.960938 273.734375 149.152344 273.597656 149.371094 273.316406 L 147.601562 271.960938 L 148.839844 273.820312 L 148.066406 272.664062 L 148.621094 273.9375 C 148.648438 273.929688 148.71875 273.898438 148.839844 273.820312 L 148.066406 272.664062 L 148.621094 273.9375 L 148.480469 273.617188 L 148.601562 273.945312 L 148.621094 273.9375 L 148.480469 273.617188 L 148.601562 273.945312 C 148.621094 273.9375 149.011719 273.832031 149.535156 273.769531 C 150.332031 273.660156 151.472656 273.582031 152.726562 273.539062 C 153.976562 273.5 155.355469 273.484375 156.695312 273.484375 C 158.480469 273.484375 160.1875 273.507812 161.5 273.507812 C 161.921875 273.507812 162.304688 273.503906 162.640625 273.5 C 162.984375 273.492188 163.273438 273.480469 163.5625 273.457031 L 163.578125 273.457031 C 169.601562 272.9375 175.601562 272.253906 181.582031 271.449219 C 206.605469 268.066406 231.738281 266.242188 256.890625 260.804688 C 269.46875 258.078125 282.605469 254.730469 294.628906 249.15625 C 300.640625 246.367188 306.378906 243.015625 311.605469 238.890625 C 316.835938 234.769531 321.554688 229.871094 325.507812 224.027344 C 339.128906 203.851562 346.886719 178.230469 348.648438 154.339844 C 349.039062 148.992188 349.332031 143.191406 349.332031 137.199219 C 349.324219 124.449219 348.027344 110.839844 343.417969 98.847656 L 337.972656 100.945312 C 342.195312 111.878906 343.503906 124.851562 343.496094 137.199219 C 343.496094 143 343.214844 148.664062 342.828125 153.914062 C 341.15625 176.855469 333.601562 201.65625 320.675781 220.753906 C 317.085938 226.070312 312.804688 230.519531 307.996094 234.3125 C 300.789062 239.992188 292.378906 244.195312 283.425781 247.464844 C 274.472656 250.742188 264.976562 253.085938 255.65625 255.105469 C 231.035156 260.4375 206.0625 262.261719 180.800781 265.667969 C 174.902344 266.460938 168.992188 267.132812 163.074219 267.644531 L 163.089844 267.640625 C 163.019531 267.648438 162.804688 267.65625 162.527344 267.664062 C 162.25 267.667969 161.898438 267.671875 161.5 267.671875 C 160.253906 267.671875 158.523438 267.648438 156.695312 267.648438 C 154.535156 267.648438 152.246094 267.679688 150.300781 267.828125 C 149.324219 267.902344 148.441406 268.003906 147.617188 268.179688 C 147.199219 268.273438 146.796875 268.382812 146.34375 268.570312 C 146.121094 268.667969 145.875 268.785156 145.605469 268.960938 C 145.339844 269.140625 145.035156 269.382812 144.738281 269.765625 C 136.675781 280.292969 126.878906 289.386719 115.808594 296.066406 C 104.734375 302.75 92.398438 307.027344 79.175781 307.972656 L 79.382812 310.882812 L 79.203125 307.972656 C 79.117188 307.976562 79.046875 307.980469 78.992188 307.980469 C 78.636719 307.976562 78.394531 307.90625 78.175781 307.800781 C 77.851562 307.640625 77.542969 307.34375 77.289062 306.894531 C 77.042969 306.445312 76.890625 305.855469 76.890625 305.296875 C 76.890625 304.804688 77.003906 304.347656 77.191406 304.003906 C 77.382812 303.652344 77.613281 303.398438 78.011719 303.171875 C 82.398438 300.753906 85.597656 297.578125 87.617188 293.917969 C 89.644531 290.265625 90.484375 286.207031 90.480469 282.089844 C 90.472656 276.105469 88.765625 269.941406 86.246094 264.015625 C 85.898438 263.203125 85.195312 262.582031 84.34375 262.347656 C 74.152344 259.519531 64.429688 255.503906 55.695312 249.730469 C 46.394531 243.582031 38.59375 235.90625 32.1875 227.128906 C 25.777344 218.351562 20.765625 208.460938 17.066406 197.914062 C 11.945312 183.304688 8.707031 167.171875 8.707031 151.46875 C 8.707031 140.253906 10.351562 129.265625 14.085938 119.164062 C 17.824219 109.054688 23.632812 99.832031 32.039062 92.042969 C 43.414062 81.503906 57.027344 74.21875 71.644531 68.894531 C 86.265625 63.574219 101.875 60.238281 117.125 57.585938 C 142.621094 53.136719 168.550781 51.003906 194.460938 51.003906 C 199.613281 51.003906 204.769531 51.085938 209.917969 51.253906 C 234.800781 52.066406 260.210938 55.136719 284.082031 61.886719 C 291.738281 64.054688 300.234375 67.109375 308.132812 71.078125 C 316.03125 75.035156 323.328125 79.902344 328.628906 85.574219 C 332.695312 89.914062 335.734375 95.136719 337.972656 100.945312 L 340.695312 99.898438 " fill-opacity="1" fill-rule="nonzero"/></g><path fill="#7ed957" d="M 260.230469 67.558594 C 264.210938 67.253906 267.578125 67.867188 271.246094 69.703125 " fill-opacity="1" fill-rule="nonzero"/><path fill="#231f20" d="M 260.460938 70.46875 C 261.035156 70.421875 261.589844 70.398438 262.125 70.398438 C 264.894531 70.410156 267.199219 70.949219 269.945312 72.3125 C 271.382812 73.03125 273.132812 72.449219 273.855469 71.007812 C 274.578125 69.570312 273.996094 67.816406 272.554688 67.09375 C 269.144531 65.375 265.726562 64.554688 262.125 64.566406 C 261.425781 64.566406 260.722656 64.597656 260.007812 64.648438 C 258.402344 64.773438 257.199219 66.175781 257.324219 67.785156 C 257.449219 69.390625 258.851562 70.59375 260.460938 70.46875 " fill-opacity="1" fill-rule="nonzero"/><path fill="#7ed957" d="M 276.144531 72.761719 C 299.398438 76.738281 319.589844 94.792969 326.9375 117.128906 " fill-opacity="1" fill-rule="nonzero"/><path fill="#231f20" d="M 275.652344 75.636719 C 286.691406 77.523438 297.082031 82.773438 305.578125 90.25 C 314.078125 97.726562 320.671875 107.402344 324.164062 118.039062 C 324.667969 119.570312 326.316406 120.40625 327.847656 119.898438 C 329.378906 119.398438 330.210938 117.75 329.710938 116.21875 C 325.859375 104.515625 318.679688 94.003906 309.433594 85.871094 C 300.1875 77.742188 288.851562 71.976562 276.636719 69.886719 C 275.046875 69.613281 273.539062 70.679688 273.265625 72.269531 C 272.996094 73.855469 274.066406 75.363281 275.652344 75.636719 " fill-opacity="1" fill-rule="nonzero"/><path fill="#231f20" d="M 326.773438 124.164062 C 326.773438 125.390625 326.773438 126.308594 326.773438 127.226562 C 326.773438 128.835938 328.082031 130.144531 329.691406 130.144531 C 331.300781 130.144531 332.609375 128.835938 332.609375 127.226562 C 332.609375 126.308594 332.609375 125.390625 332.609375 124.164062 C 332.609375 122.554688 331.300781 121.246094 329.691406 121.246094 C 328.082031 121.246094 326.773438 122.554688 326.773438 124.164062 " fill-opacity="1" fill-rule="nonzero"/><path fill="#7ed957" d="M 178.839844 256.347656 C 182.207031 256.347656 185.269531 255.738281 188.632812 255.433594 " fill-opacity="1" fill-rule="nonzero"/><path fill="#231f20" d="M 178.839844 259.265625 C 180.703125 259.265625 182.429688 259.097656 184.082031 258.902344 C 185.734375 258.703125 187.3125 258.480469 188.894531 258.339844 C 190.503906 258.191406 191.683594 256.773438 191.539062 255.167969 C 191.390625 253.566406 189.972656 252.382812 188.371094 252.527344 C 186.589844 252.691406 184.953125 252.921875 183.390625 253.109375 C 181.832031 253.296875 180.351562 253.433594 178.839844 253.433594 C 177.230469 253.433594 175.925781 254.738281 175.925781 256.347656 C 175.925781 257.960938 177.230469 259.265625 178.839844 259.265625 " fill-opacity="1" fill-rule="nonzero"/><path fill="#7ed957" d="M 201.484375 254.207031 C 208.21875 252.679688 215.253906 252.984375 221.988281 252.066406 C 235.144531 250.84375 248.300781 248.089844 260.84375 243.191406 " fill-opacity="1" fill-rule="nonzero"/><path fill="#231f20" d="M 202.128906 257.050781 C 205.238281 256.347656 208.527344 256.046875 211.929688 255.816406 C 215.328125 255.589844 218.835938 255.4375 222.382812 254.957031 L 221.988281 252.066406 L 222.257812 254.972656 C 235.632812 253.726562 249.0625 250.921875 261.90625 245.910156 C 263.40625 245.324219 264.148438 243.632812 263.5625 242.132812 C 262.976562 240.632812 261.285156 239.890625 259.785156 240.476562 C 247.539062 245.253906 234.648438 247.960938 221.71875 249.164062 L 221.589844 249.175781 C 218.40625 249.613281 215.027344 249.765625 211.542969 250 C 208.058594 250.230469 204.460938 250.542969 200.835938 251.363281 C 199.269531 251.71875 198.28125 253.285156 198.636719 254.851562 C 198.996094 256.425781 200.558594 257.410156 202.132812 257.050781 " fill-opacity="1" fill-rule="nonzero"/><g clip-path="url(#1cf4a4d810)"><path fill="#f5db48" d="M 163.5625 81.914062 C 204.976562 81.914062 238.5625 115.503906 238.5625 156.914062 C 238.5625 198.328125 204.976562 231.914062 163.5625 231.914062 C 122.152344 231.914062 88.5625 198.328125 88.5625 156.914062 C 88.5625 115.503906 122.152344 81.914062 163.5625 81.914062 Z M 163.5625 81.914062 " fill-opacity="1" fill-rule="nonzero"/></g><g clip-path="url(#4f696edd7d)"><g clip-path="url(#19b72ca3b7)"><path fill="url(#43d9f7bb59)" d="M 177.210938 149.710938 L 177.210938 129.710938 L 197.210938 129.710938 L 197.210938 149.710938 Z M 177.210938 149.710938 " fill-rule="nonzero"/></g></g><g clip-path="url(#1670f5eaee)"><g clip-path="url(#802eef70ab)"><path fill="url(#bf1b7afa6c)" d="M 129.917969 149.710938 L 129.917969 129.710938 L 149.917969 129.710938 L 149.917969 149.710938 Z M 129.917969 149.710938 " fill-rule="nonzero"/></g></g><path fill="#5d3f3f" d="M 163.5625 206.179688 C 145.5625 206.179688 129.503906 193.148438 125.417969 175.210938 C 125.0625 173.621094 126.035156 172.0625 127.621094 171.679688 C 129.210938 171.328125 130.769531 172.296875 131.152344 173.886719 C 134.652344 189.179688 148.300781 200.269531 163.59375 200.269531 C 178.886719 200.269531 192.535156 189.179688 196.035156 173.886719 C 196.386719 172.296875 197.976562 171.328125 199.5625 171.679688 C 201.152344 172.03125 202.152344 173.621094 201.769531 175.210938 C 197.621094 193.148438 181.5625 206.179688 163.5625 206.179688 Z M 163.5625 206.179688 " fill-opacity="1" fill-rule="nonzero"/></svg>